<?xml version="1.0" standalone="no"?>
<!DOCTYPE svg PUBLIC "-//W3C//DTD SVG 20010904//EN"
 "http://www.w3.org/TR/2001/REC-SVG-20010904/DTD/svg10.dtd">
<svg version="1.0" xmlns="http://www.w3.org/2000/svg"
 width="512.000000pt" height="512.000000pt" viewBox="0 0 512.000000 512.000000"
 preserveAspectRatio="xMidYMid meet">

<g transform="translate(0.000000,512.000000) scale(0.100000,-0.100000)"
fill="#000000" stroke="none" stroke-width="200">
<path d="M2225 4468 c-766 -47 -1461 -271 -1852 -596 -179 -149 -288 -301
-345 -482 l-23 -75 0 -755 0 -755 23 -75 c57 -181 166 -333 345 -482 813 -676
2729 -812 3916 -278 238 107 431 238 581 394 112 117 177 224 222 366 l23 75
0 755 0 755 -23 75 c-57 181 -166 333 -345 482 -511 425 -1501 660 -2522 596z
m540 -208 c713 -33 1315 -196 1735 -471 106 -70 257 -214 314 -300 229 -348
15 -739 -554 -1013 -206 -98 -453 -182 -691 -234 l-87 -19 -656 1010 c-361
555 -655 1012 -652 1014 3 3 76 8 163 12 87 5 169 9 183 9 14 1 124 -3 245 -8z
m-173 -1059 c362 -557 658 -1015 656 -1016 -9 -9 -301 -37 -475 -45 -221 -11
-557 1 -768 26 -695 82 -1276 304 -1571 598 -108 108 -156 178 -191 277 -72
205 -4 410 199 605 221 212 596 389 1055 499 147 35 370 74 407 72 27 -2 76
-75 688 -1016z m-2090 -768 c486 -325 1240 -513 2058 -513 955 0 1824 259
2256 673 l95 91 -3 -425 -3 -424 -27 -74 c-37 -101 -85 -170 -192 -277 -514
-513 -1820 -760 -2951 -558 -581 104 -1045 303 -1301 558 -107 107 -155 176
-192 277 l-27 74 -3 424 -3 425 95 -91 c52 -50 141 -122 198 -160z"/>
</g>
</svg>
